<?xml version="1.0" encoding="UTF-8" standalone="no"?>
<!-- Created with Inkscape (http://www.inkscape.org/) -->

<svg
   xmlns:dc="http://purl.org/dc/elements/1.1/"
   xmlns:cc="http://creativecommons.org/ns#"
   xmlns:rdf="http://www.w3.org/1999/02/22-rdf-syntax-ns#"
   xmlns:svg="http://www.w3.org/2000/svg"
   xmlns="http://www.w3.org/2000/svg"
   xmlns:sodipodi="http://sodipodi.sourceforge.net/DTD/sodipodi-0.dtd"
   xmlns:inkscape="http://www.inkscape.org/namespaces/inkscape"
   width="108.39017mm"
   height="108.39017mm"
   viewBox="0 0 108.39017 108.39017"
   version="1.1"
   id="svg4860"
   inkscape:version="0.92.5 (2060ec1f9f, 2020-04-08)"
   sodipodi:docname="Logo seul.svg"
   inkscape:export-filename="C:\Users\chris\OneDrive\Documents\Celect F\Logo seul.png"
   inkscape:export-xdpi="310"
   inkscape:export-ydpi="310">
  <defs
     id="defs4854" />
  <sodipodi:namedview
     id="base"
     pagecolor="#ffffff"
     bordercolor="#666666"
     borderopacity="1.0"
     inkscape:pageopacity="0.0"
     inkscape:pageshadow="2"
     inkscape:zoom="1.4"
     inkscape:cx="203.47676"
     inkscape:cy="127.91683"
     inkscape:document-units="mm"
     inkscape:current-layer="layer1"
     showgrid="false"
     fit-margin-top="0"
     fit-margin-left="0"
     fit-margin-right="0"
     fit-margin-bottom="0"
     inkscape:window-width="1920"
     inkscape:window-height="1057"
     inkscape:window-x="-8"
     inkscape:window-y="-8"
     inkscape:window-maximized="1" />
  <metadata
     id="metadata4857">
    <rdf:RDF>
      <cc:Work
         rdf:about="">
        <dc:format>image/svg+xml</dc:format>
        <dc:type
           rdf:resource="http://purl.org/dc/dcmitype/StillImage" />
        <dc:title></dc:title>
      </cc:Work>
    </rdf:RDF>
  </metadata>
  <g
     inkscape:label="Calque 1"
     inkscape:groupmode="layer"
     id="layer1"
     transform="translate(-52.853774,-67.647433)">
    <g
       transform="matrix(1.911669,0,0,1.911669,-44.541394,80.379827)"
       id="g4700">
      <g
         transform="translate(-25.591057,-101.77319)"
         id="g4805">
        <g
           transform="matrix(0.92652048,0,0,0.92652048,122.16445,20.251927)"
           id="g959">
          <g
             transform="translate(-1.4292158,0.46403766)"
             id="g4690">
            <circle
               r="7.3705359"
               cy="118.35769"
               cx="-17.216953"
               id="path833"
               style="opacity:1;fill:#b7c837;fill-opacity:1;stroke:none;stroke-width:0.1;stroke-miterlimit:4;stroke-dasharray:none;stroke-opacity:1" />
            <path
               inkscape:connector-curvature="0"
               id="path844"
               d="m -17.763171,94.903991 a 23.146786,23.026212 0 0 0 -11.027235,3.078367 23.146786,23.026212 0 0 0 -11.550197,19.477872 23.151043,19.560268 0 0 1 11.548131,-16.47599 23.151043,19.560268 0 0 1 23.151041,0 A 23.151043,19.560268 0 0 1 5.9077345,116.99825 23.146786,23.026212 0 0 0 -5.6434982,97.982358 23.146786,23.026212 0 0 0 -17.763171,94.903991 Z m -22.577432,22.556239 a 23.151043,19.560268 0 0 0 -0.02739,0.46354 h 0.0041 a 23.146786,23.026212 0 0 1 0.02325,-0.46354 z m 46.2488543,-0.4594 a 23.146786,23.026212 0 0 1 0.021704,0.92294 h 0.00413 a 23.151043,19.560268 0 0 0 -0.025838,-0.92294 z"
               style="opacity:1;fill:#b7c837;fill-opacity:1;stroke:none;stroke-width:0.1;stroke-miterlimit:4;stroke-dasharray:none;stroke-opacity:1" />
            <path
               style="opacity:1;fill:#b7c837;fill-opacity:1;stroke:none;stroke-width:0.12193602;stroke-miterlimit:4;stroke-dasharray:none;stroke-opacity:1"
               d="m -17.882973,86.860615 a 28.224271,28.077247 0 0 0 -13.446172,3.753639 28.224271,28.077247 0 0 0 -14.083851,23.750546 28.229461,23.851013 0 0 1 14.081332,-20.090168 28.229461,23.851013 0 0 1 28.2294593,0 A 28.229461,23.851013 0 0 1 10.980388,113.80149 28.224271,28.077247 0 0 0 -3.1047253,90.614254 28.224271,28.077247 0 0 0 -17.882973,86.860615 Z M -45.412996,114.3648 a 28.229461,23.851013 0 0 0 -0.0334,0.56523 h 0.005 a 28.224271,28.077247 0 0 1 0.02835,-0.56523 z m 56.394014,-0.56017 a 28.224271,28.077247 0 0 1 0.02647,1.1254 h 0.005 a 28.229461,23.851013 0 0 0 -0.03151,-1.1254 z"
               id="path881"
               inkscape:connector-curvature="0" />
            <path
               style="opacity:1;fill:#b7c837;fill-opacity:1;stroke:none;stroke-width:0.05913984;stroke-miterlimit:4;stroke-dasharray:none;stroke-opacity:1"
               d="m -17.539984,102.94616 a 13.688971,13.617664 0 0 0 -6.521489,1.82054 13.688971,13.617664 0 0 0 -6.830767,11.51918 13.691489,11.56791 0 0 1 6.829545,-9.74387 13.691489,11.56791 0 0 1 13.691488,0 13.691489,11.56791 0 0 1 6.8301575,9.47066 13.688971,13.617664 0 0 0 -6.8313805,-11.24597 13.688971,13.617664 0 0 0 -7.167554,-1.82054 z m -13.352256,13.33972 a 13.691489,11.56791 0 0 0 -0.0162,0.27414 h 0.0024 a 13.688971,13.617664 0 0 1 0.01375,-0.27414 z m 27.3514962,-0.27169 a 13.688971,13.617664 0 0 1 0.012836,0.54583 h 0.00244 a 13.691489,11.56791 0 0 0 -0.015281,-0.54583 z"
               id="path885"
               inkscape:connector-curvature="0" />
            <text
               xml:space="preserve"
               style="font-style:normal;font-weight:normal;font-size:17.58453369px;line-height:1.25;font-family:sans-serif;letter-spacing:0px;word-spacing:0px;fill:#000000;fill-opacity:1;stroke:none;stroke-width:0.43961334"
               x="-25.522331"
               y="197.53159"
               id="text4797"><tspan
                 sodipodi:role="line"
                 id="tspan4795"
                 x="-25.522331"
                 y="213.57449"
                 style="stroke-width:0.43961334" /></text>
          </g>
        </g>
        <text
           id="text831"
           y="145.63263"
           x="83.447838"
           style="font-style:normal;font-weight:normal;font-size:10.58333302px;line-height:1.25;font-family:sans-serif;letter-spacing:0px;word-spacing:0px;fill:#000000;fill-opacity:1;stroke:none;stroke-width:0.26458332"
           xml:space="preserve"><tspan
             style="stroke-width:0.26458332"
             y="145.63263"
             x="83.447838"
             id="tspan829"
             sodipodi:role="line">Celect F</tspan></text>
      </g>
    </g>
    <rect
       style="opacity:1;fill:none;fill-opacity:1;stroke:none;stroke-width:0.1;stroke-miterlimit:4;stroke-dasharray:none;stroke-opacity:1"
       id="rect824"
       width="108.29018"
       height="108.29018"
       x="52.903774"
       y="67.697433" />
  </g>
</svg>
